<?xml version="1.0" encoding="utf-8"?>
<!-- Generator: Adobe Illustrator 24.0.2, SVG Export Plug-In . SVG Version: 6.00 Build 0)  -->
<svg version="1.1" id="Layer_1" xmlns="http://www.w3.org/2000/svg" xmlns:xlink="http://www.w3.org/1999/xlink" x="0px" y="0px"
	 width="18.5px" height="22.4px" viewBox="0 0 18.5 22.4" style="enable-background:new 0 0 18.5 22.4;" xml:space="preserve">
<style type="text/css">
	.st0{fill:none;stroke:#FFFFFF;stroke-miterlimit:10;}
	.st1{fill:#FFFFFF;}
	.st2{fill:none;}
</style>
<g id="XMLID_2_">
	<path id="XMLID_10_" class="st0" d="M17.6,2.5c0-1.2-0.7-2-1.9-2c-4.3,0-8.5,0-12.8,0c-1.3,0-2,0.7-2,2c0,2.6,0,5.1,0,7.7
		c0,2.6,0,5.3,0,7.9c0,1.1,0.8,1.9,1.9,1.8C3,20,3.1,20,3.1,19.7c0-0.3-0.1-0.4-0.4-0.4c-0.6-0.1-0.9-0.5-0.9-1
		c0-0.5,0.3-0.9,0.8-1.1c0.3-0.1,0.5-0.1,0.8-0.1c4.2,0,8.4,0,12.6,0c1.1,0,1.6-0.5,1.6-1.6C17.6,11.2,17.6,6.9,17.6,2.5z"/>
	<path id="XMLID_35_" class="st0" d="M6.3,21.4c-0.5-0.3-0.9-0.7-1.4-0.7c-0.4,0-0.9,0.5-1.4,0.8c0-1.1,0-2.1,0-3.1
		C3.5,18,3.6,18,3.8,18c0.7,0,1.4,0,2.1,0c0.3,0,0.3,0.1,0.3,0.4C6.2,19.4,6.3,20.3,6.3,21.4z"/>
	<path id="XMLID_12_" class="st0" d="M16.1,20c0.1,0,0.2-0.1,0.3-0.1c0.2-0.2,0.3-0.3,0.5-0.5l-10.1,0c-0.1,0.1-0.1,0.2-0.1,0.3
		c0,0.3,0.1,0.4,0.4,0.4c3,0,5.9,0,8.9,0C15.9,20,16,20,16.1,20z"/>
</g>
<g id="XMLID_5_">
	<g id="XMLID_1_">
		<path class="st1" d="M7.9,12.2c0.1,0.4,0.1,0.9,0,1.3c0,0.1-0.1,0.3-0.1,0.4c0,0,0.1,0,0.1,0c0.3-0.3,0.7-0.6,1-0.8
			c0.4-0.3,0.8-0.3,1.1,0.1c0.1,0.1,0.2,0.3,0.2,0.5c0.1,0.3,0.2,0.6,0.2,0.9c0.1,0,0.3,0,0.4,0c-0.1-0.3-0.2-0.7-0.2-1
			c-0.1-0.6,0.4-0.8,0.9-0.8c0.3,0,0.5,0.1,0.8,0.2c0.2,0.1,0.5,0.1,0.8,0.2c-0.4-0.8-0.5-1.6-0.1-2.3c0.4-0.8,1.1-1.1,2-1.2
			c-1-1.1-0.7-2.2-0.2-3.4c-0.8,0.7-1.6,1.2-2.4,0.2c-0.2,0.5-0.4,1-0.7,1.5c-0.1,0.2-0.3,0.4-0.6,0.4c-0.3,0-0.5-0.1-0.7-0.4
			C10,7.3,10,6.5,10.1,5.6c0-0.3,0.1-0.6,0.1-0.9C9.9,4.9,9.6,5,9.3,4.7c-0.6-0.5-0.8-1.1-1-1.8H8.2c0,0.3,0.1,0.5,0.1,0.8
			c0,0.6-0.1,1.3-0.8,1.5c-0.2,0-0.3,0-0.5,0C7,5.3,7.1,5.4,7.1,5.5C7.5,6,7.8,6.6,8,7.2C8,7.6,8,7.9,7.9,8.3
			C7.6,8.7,7.2,8.9,6.7,8.8C6.2,8.6,5.7,8.4,5.4,8C5.3,8.5,4.9,8.8,4.4,8.9c-0.3,0-0.6,0-0.9,0V9c0.2,0.2,0.5,0.4,0.7,0.6
			c0.4,0.4,0.7,0.8,0.4,1.4c0.2,0,0.3,0,0.5,0c0.7,0,1.3,0.1,2,0.3C7.4,11.5,7.8,11.8,7.9,12.2z M10.1,10c0.4-0.2,0.9,0.1,0.9,0.6
			c0,0.3-0.1,0.6-0.3,0.8c-0.2,0.2-0.4,0.3-0.7,0.2c-0.3-0.1-0.4-0.4-0.4-0.6C9.6,10.6,9.7,10.2,10.1,10z"/>
	</g>
</g>
<polyline id="XMLID_4_" class="st2" points="17.2,19.4 17.2,19.3 17.2,19.3 17,19.3 "/>
</svg>
