<?xml version="1.0" encoding="utf-8"?>
<!-- Generator: Adobe Illustrator 24.0.2, SVG Export Plug-In . SVG Version: 6.00 Build 0)  -->
<svg version="1.1" id="Layer_1" xmlns="http://www.w3.org/2000/svg" xmlns:xlink="http://www.w3.org/1999/xlink" x="0px" y="0px"
	 width="23.9px" height="25.5px" viewBox="0 0 23.9 25.5" style="enable-background:new 0 0 23.9 25.5;" xml:space="preserve">
<style type="text/css">
	.st0{fill:#FFFFFF;}
</style>
<g>
	<g id="UecGdN.tif">
		<g>
			<path class="st0" d="M1.8,8.1c1.4-4,5.7-6.8,10.2-6.7c4.5,0.1,8.5,3.1,9.7,6.6c-2.9-2.5-6.3-3.5-10-3.5C8,4.5,4.6,5.4,1.8,8.1z"
				/>
			<path class="st0" d="M21.7,15.4c-1.1,3-4.5,6.3-9.4,6.5c-4.5,0.2-9-2.6-10.4-6.6c2.8,2.6,6.3,3.5,10,3.5
				C15.5,18.8,18.9,17.9,21.7,15.4z"/>
			<path class="st0" d="M2.2,1.7c0.6,0,1.1,0.5,1.1,1.1c0,0.6-0.5,1.1-1.1,1.1C1.5,3.8,1,3.4,1,2.8C1.1,2.2,1.5,1.7,2.2,1.7z"/>
		</g>
	</g>
	<ellipse transform="matrix(0.7567 -0.6537 0.6537 0.7567 3.8147 13.9329)" class="st0" cx="20.6" cy="1.8" rx="1.7" ry="1.6"/>
	<ellipse class="st0" cx="3.8" cy="23.3" rx="2" ry="2"/>
</g>
<g id="yC51hL_1_">
	<g>
		<path class="st0" d="M8.1,15.8c0-0.1,0.1-0.3,0.2-0.5c1.5-2.8,2.9-5.5,4.4-8.3c0.2-0.5,0.7-0.6,1.1-0.4c0.4,0.2,0.5,0.8,0.3,1.2
			c-0.5,0.9-0.9,1.8-1.4,2.6c-1,1.9-2.1,3.8-3.1,5.8c-0.2,0.4-0.6,0.6-1,0.4C8.3,16.7,8.1,16.3,8.1,15.8z"/>
		<path class="st0" d="M4.8,11.8c0.6,0.6,1.1,1.2,1.7,1.8c0.4,0.4,0.4,1,0.1,1.3c-0.4,0.4-0.8,0.4-1.3-0.1c0,0,0,0-0.1-0.1
			c-0.7-0.8-1.4-1.5-2-2.3c-0.5-0.5-0.5-1,0-1.5c0.7-0.8,1.4-1.6,2.2-2.4c0.4-0.4,0.8-0.4,1.1-0.1c0.4,0.3,0.4,0.9,0.1,1.3
			c-0.5,0.5-0.9,1-1.4,1.5C5.1,11.6,5,11.7,4.8,11.8z"/>
		<path class="st0" d="M17.9,11.8c-0.6-0.6-1.1-1.2-1.7-1.9c-0.3-0.3-0.4-0.6-0.2-1c0.2-0.6,0.9-0.8,1.3-0.3
			c0.8,0.9,1.6,1.7,2.3,2.6c0.3,0.4,0.3,0.9,0,1.2c-0.8,0.9-1.5,1.7-2.3,2.5c-0.4,0.4-0.8,0.4-1.2,0c-0.3-0.3-0.3-0.9,0-1.3
			C16.8,13.1,17.3,12.5,17.9,11.8z"/>
	</g>
</g>
</svg>
