<?xml version="1.0" encoding="utf-8"?>
<!-- Generator: Adobe Illustrator 24.0.2, SVG Export Plug-In . SVG Version: 6.00 Build 0)  -->
<svg version="1.1" id="Layer_1" xmlns="http://www.w3.org/2000/svg" xmlns:xlink="http://www.w3.org/1999/xlink" x="0px" y="0px"
	 width="23.8px" height="22px" viewBox="0 0 23.8 22" style="enable-background:new 0 0 23.8 22;" xml:space="preserve">
<style type="text/css">
	.st0{fill:#FFFFFF;}
</style>
<g id="Oqew6U_1_">
	<g>
		<path class="st0" d="M10.7,0.2c0.5,0,1,0,1.5,0c0,0,0.1,0,0.1,0c0.6,0,1.2,0.1,1.8,0.1c1,0.1,1.9,0.2,2.9,0.5
			c0.9,0.2,1.7,0.5,2.5,0.9c0.4,0.2,0.8,0.5,1,0.8c0.3,0.4,0.4,0.9,0.2,1.4c0,0.1,0,0.1,0,0.2c0.2,0.4,0.3,0.7,0.3,1.1
			c0,0.8,0,1.6,0,2.5c0,0.1,0,0.2,0,0.4C21,8.4,20.8,8.7,20.6,9c0,0.1,0.1,0.1,0.1,0.1c0.3,0.4,0.4,0.8,0.4,1.3c0,0.8,0,1.6,0,2.4
			c0,0.4-0.1,0.8-0.4,1.2c-0.1,0.1-0.1,0.1,0,0.2c0.3,0.4,0.4,0.8,0.4,1.2c0,0.8,0,1.6,0,2.5c0,0.4-0.1,0.8-0.4,1.2
			c-0.3,0.5-0.8,0.8-1.2,1.1c-1,0.6-2.2,1-3.4,1.3c-1.1,0.3-2.2,0.4-3.3,0.5c-0.2,0-0.4,0-0.7,0c-0.4,0-0.9,0-1.3,0c0,0-0.1,0-0.1,0
			c-0.9,0-1.8-0.1-2.7-0.3c-1.1-0.2-2.1-0.4-3.1-0.8c-0.8-0.3-1.5-0.7-2.2-1.3c-0.6-0.5-0.9-1.1-0.9-1.9c0-0.7,0-1.4,0-2.1
			c0-0.5,0.1-1,0.4-1.4c0-0.1,0-0.1,0-0.2c-0.3-0.4-0.4-0.8-0.4-1.3c0-0.8,0-1.6,0-2.4c0-0.2,0-0.3,0.1-0.5C2,9.5,2.1,9.2,2.3,8.9
			c0,0,0,0,0,0C2,8.5,1.8,8,1.8,7.5c0-0.8,0-1.5,0-2.3c0-0.4,0.1-0.8,0.3-1.2c0-0.1,0.1-0.1,0-0.2C2,3.5,2,3.2,2.2,2.8
			C2.3,2.4,2.7,2.1,3,1.9c0.7-0.5,1.5-0.8,2.4-1c0.8-0.2,1.7-0.4,2.5-0.5C8.6,0.3,9.3,0.3,10,0.2C10.2,0.2,10.5,0.2,10.7,0.2z
			 M11.5,5.6c1.5,0,3.1-0.1,4.6-0.4C17,5,17.9,4.8,18.7,4.4c0.4-0.2,0.7-0.4,1-0.6c0.3-0.3,0.3-0.5,0-0.8c-0.2-0.2-0.4-0.3-0.6-0.5
			c-0.7-0.4-1.5-0.6-2.3-0.8c-1.5-0.4-3-0.5-4.6-0.5c-1.7,0-3.4,0.1-5.1,0.4C6.1,1.6,5.2,1.9,4.4,2.2C4,2.4,3.6,2.6,3.3,2.9
			C3.2,3,3.1,3.1,3.1,3.3C3,3.5,3.2,3.7,3.3,3.8C3.7,4.1,4,4.3,4.4,4.5c1,0.4,2.1,0.7,3.2,0.8C8.9,5.5,10.2,5.6,11.5,5.6z M2.9,10.4
			c0,0.8,0,1.7,0,2.5c0,0.1,0,0.2,0.1,0.3c0.1,0.4,0.4,0.7,0.8,0.9c0.7,0.5,1.4,0.8,2.2,1.1c1.4,0.5,2.9,0.7,4.4,0.8
			c1.4,0.1,2.9,0,4.3-0.2c1.1-0.2,2.2-0.4,3.3-0.9c0.6-0.3,1.2-0.6,1.7-1c0.3-0.3,0.5-0.7,0.5-1.2c0-0.7,0-1.4,0-2.1
			c0,0,0-0.1,0-0.1c0,0,0,0-0.1,0c-0.6,0.5-1.4,0.9-2.1,1.2c-1.6,0.6-3.3,0.9-5.1,1c-1.2,0.1-2.3,0-3.5-0.1
			c-1.1-0.1-2.3-0.3-3.4-0.6c-0.9-0.3-1.8-0.6-2.6-1.1C3.2,10.7,3,10.6,2.9,10.4z M2.9,15.5c0,0.1,0,0.1,0,0.1c0,0.8,0,1.5,0,2.3
			c0,0.2,0,0.3,0.1,0.5c0.1,0.3,0.4,0.6,0.7,0.8c0.6,0.4,1.2,0.7,1.9,0.9c1.5,0.5,3.1,0.8,4.8,0.9c1.6,0.1,3.2,0,4.7-0.3
			c1.1-0.2,2.1-0.5,3.1-0.9c0.6-0.3,1.1-0.6,1.6-1c0.3-0.3,0.4-0.6,0.4-1c0-0.7,0-1.4,0-2.1c0,0,0-0.1,0-0.1
			c-0.1,0.1-0.1,0.1-0.2,0.1c-0.7,0.5-1.4,0.8-2.2,1.1c-1.5,0.5-3,0.8-4.5,0.9c-1.2,0.1-2.4,0.1-3.6,0c-1-0.1-2-0.2-3-0.5
			C5.2,16.8,3.9,16.4,2.9,15.5z M20.1,5.5c-0.1,0.1-0.2,0.1-0.3,0.2c-0.6,0.4-1.3,0.6-2,0.8c-1.7,0.5-3.4,0.7-5.2,0.8
			c-1.5,0.1-3,0-4.4-0.2c-1-0.1-2.1-0.3-3.1-0.6c-0.8-0.2-1.6-0.5-2.3-1c0,0,0,0,0,0c0,0.7,0,1.5,0,2.2C2.9,7.9,2.9,8,3,8.1
			c0.2,0.3,0.4,0.6,0.7,0.8C4.3,9.4,5.1,9.7,5.9,10c1.6,0.5,3.2,0.7,4.8,0.8c1.6,0.1,3.2,0,4.8-0.4c1.1-0.2,2.1-0.5,3.1-1.1
			c0.4-0.2,0.8-0.5,1.1-0.9c0.2-0.2,0.3-0.4,0.3-0.7C20.1,7,20.1,6.3,20.1,5.5z"/>
	</g>
</g>
</svg>
