<?xml version="1.0" encoding="utf-8"?>
<!-- Generator: Adobe Illustrator 24.0.2, SVG Export Plug-In . SVG Version: 6.00 Build 0)  -->
<svg version="1.1" id="Layer_1" xmlns="http://www.w3.org/2000/svg" xmlns:xlink="http://www.w3.org/1999/xlink" x="0px" y="0px"
	 width="23.8px" height="22px" viewBox="0 0 23.8 22" style="enable-background:new 0 0 23.8 22;" xml:space="preserve">
<style type="text/css">
	.st0{fill:#FFFFFF;}
</style>
<g id="oOeeGk.tif">
	<g>
		<g>
			<path class="st0" d="M23.2,10.3c-0.5-0.1-1.2-0.1-1.7-0.1c-0.7,0-0.8-0.1-0.9-0.6c-0.1-0.8-0.5-1.4-1.2-2.1
				c-0.2-0.2-0.3-0.2-0.4,0.1c-0.5,1.3-0.7,2.7-0.1,4c0.2,0.4,0,0.7-0.4,0.9c-0.7,0.3-1.3,0.4-2,0.4c-2.7,0-5.3,0-7.8,0
				c-2.6,0-5.2,0-7.8,0c-0.4,0-0.4,0-0.4,0.4c-0.1,2,0.4,3.8,1.6,5.4c1.1,1.4,2.5,2.4,4.4,2.6c2.5,0.3,5,0,7.3-1
				c1.4-0.6,2.6-1.5,3.7-2.7c1.2-1.3,2-2.8,2.6-4.4c0.2-0.6,0.3-0.6,1-0.6c1.2,0,2.1-0.5,2.6-1.5C23.7,10.7,23.7,10.5,23.2,10.3z"/>
		</g>
		<g id="MkzRBa.tif">
			<g>
				<path class="st0" d="M4.7,7.2c0-0.8,0-1.5,0-2.3c0-0.7,0.2-0.9,0.9-0.9c1.6,0,3.2,0,4.8,0c0.1,0,0.3,0,0.4,0c0-0.1,0-0.2,0-0.3
					c0-0.7,0-1.4,0-2.1c0-0.5,0.2-0.7,0.6-0.7c1,0,1.9,0,2.9,0c0.5,0,0.6,0.3,0.6,0.7c0,1.7,0,3.6,0,5.3c0,0.1,0,0.2,0,0.4
					c0.1,0,0.3,0,0.4,0c0.6,0,1.3,0,1.9,0C17.8,7.2,18,7.4,18,8c0,1,0,1.9,0,2.9c0,0.5-0.2,0.8-0.7,0.8c-1.7,0-3.3,0-5,0
					c-2.1,0-4.2,0-6.4,0c-1.2,0-2.3,0-3.5,0c-0.8,0-0.9-0.1-0.9-1c0-0.9,0-1.8,0-2.7c0-0.5,0.2-0.8,0.7-0.8c0.6,0,1.3,0,1.9,0
					C4.4,7.2,4.6,7.2,4.7,7.2z M12,3.9c0.6,0,1.2,0,1.8,0c0-0.6,0-1.2,0-1.8c-0.6,0-1.2,0-1.8,0C12,2.6,12,3.2,12,3.9z M6,5.2
					c0,0.6,0,1.2,0,1.9c0.6,0,1.2,0,1.8,0c0-0.6,0-1.2,0-1.9C7.2,5.2,6.5,5.2,6,5.2z M9,7.2c0.6,0,1.2,0,1.8,0c0-0.6,0-1.2,0-1.8
					c-0.6,0-1.2,0-1.8,0C9,5.8,9,6.5,9,7.2z M2.8,8.5c0,0.6,0,1.3,0,1.9c0.6,0,1.2,0,1.7,0c0-0.6,0-1.2,0-1.9C4,8.5,3.5,8.5,2.8,8.5
					z M15.1,10.3c0.6,0,1.2,0,1.8,0c0-0.6,0-1.2,0-1.9c-0.6,0-1.2,0-1.8,0C15.1,9.1,15.1,9.7,15.1,10.3z M12,5.2c0,0.6,0,1.2,0,1.8
					c0.6,0,1.2,0,1.7,0c0-0.6,0-1.2,0-1.8C13.2,5.2,12.7,5.2,12,5.2z M7.7,8.5c-0.6,0-1.2,0-1.7,0c0,0.6,0,1.2,0,1.8
					c0.6,0,1.2,0,1.7,0C7.7,9.7,7.7,9.1,7.7,8.5z M9,8.5c0,0.6,0,1.2,0,1.9c0.6,0,1.2,0,1.7,0c0-0.6,0-1.2,0-1.9
					C10.2,8.5,9.6,8.5,9,8.5z M13.9,8.5c-0.6,0-1.2,0-1.7,0c0,0.6,0,1.2,0,1.8c0.6,0,1.2,0,1.7,0C13.9,9.7,13.9,9.1,13.9,8.5z"/>
			</g>
		</g>
	</g>
</g>
</svg>
