<?xml version="1.0" encoding="utf-8"?>
<!-- Generator: Adobe Illustrator 24.0.2, SVG Export Plug-In . SVG Version: 6.00 Build 0)  -->
<svg version="1.1" id="Layer_1" xmlns="http://www.w3.org/2000/svg" xmlns:xlink="http://www.w3.org/1999/xlink" x="0px" y="0px"
	 width="22px" height="23px" viewBox="0 0 22 23" style="enable-background:new 0 0 22 23;" xml:space="preserve">
<style type="text/css">
	.st0{fill:none;stroke:#FFFFFF;stroke-miterlimit:10;}
	.st1{fill:#FFFFFF;}
	.st2{fill:none;}
</style>
<g id="XMLID_2_">
	<path id="XMLID_10_" class="st0" d="M21.2,2.9c0-1.4-0.9-2.2-2.4-2.2c-5.2,0-10.4,0-15.7,0C1.6,0.7,0.8,1.6,0.8,3
		c0,2.8,0,5.7,0,8.5c0,2.9,0,5.9,0,8.8c0,1.2,0.9,2.1,2.3,2.1c0.3,0,0.5-0.1,0.5-0.4c0-0.4-0.2-0.4-0.5-0.4
		c-0.7-0.1-1.1-0.5-1.1-1.1c0-0.6,0.3-1,0.9-1.1c0.3-0.1,0.7-0.1,1-0.1c5.1,0,10.3,0,15.4,0c1.4,0,2-0.6,2-1.9
		C21.2,12.6,21.2,7.7,21.2,2.9z"/>
	<path id="XMLID_35_" class="st1" d="M7.1,23c-0.5-0.3-0.9-0.7-1.4-0.7S4.8,22.7,4.3,23c0-1.1,0-2,0-3c0-0.3,0.1-0.3,0.3-0.3
		c0.8,0,1.4,0,2.2,0C7,19.7,7,19.8,7,20.1C7.1,21.1,7.1,22,7.1,23z"/>
	<path id="XMLID_12_" class="st0" d="M19.8,22.1c0.1,0,0.2-0.1,0.4-0.2c0.2-0.2,0.5-0.3,0.6-0.5H7.9c-0.1,0.1-0.1,0.2-0.1,0.3
		c0,0.3,0.1,0.4,0.5,0.4c3.8,0,7.6,0,11.4,0C19.6,22.1,19.7,22.1,19.8,22.1z"/>
</g>
<g id="XMLID_5_">
	<g id="XMLID_1_">
		<path id="XMLID_42_" class="st1" d="M11.1,17.7c0-0.1,0-0.1,0-0.2s0-0.3,0-0.4c0-0.2,0.1-0.4,0.2-0.6c-0.3,0-0.6,0-0.8,0.3
			c-0.2-0.1-0.1-0.1,0-0.2c0.1-0.2,0.3-0.3,0.5-0.3c0.1,0,0.2,0,0.2,0c0.1,0,0.2-0.1,0.2-0.2c0.1-0.3,0.1-0.7,0.1-1
			c0.1-1,0.1-1.9,0.1-2.9c0-0.7-0.1-1.3-0.2-2c-0.1-0.5-0.3-0.9-0.4-1.4c0.1,0,0.1-0.2,0-0.2c-0.2-0.3-0.5-0.3-0.8-0.1
			C9.9,8.6,9.7,8.8,9.4,9l0,0c0-0.1,0.1-0.2,0.1-0.3c0.1-0.3,0.1-0.6,0-0.9C9.4,7.5,9.1,7.3,8.8,7.2C8.4,7,7.9,6.9,7.4,6.9
			c-0.1,0-0.2,0-0.4,0c0.2-0.4,0-0.7-0.3-1C6.6,5.8,6.4,5.7,6.2,5.5c0,0,0,0,0-0.1c0.2,0,0.5,0,0.7,0c0.4,0,0.7-0.3,0.8-0.6
			c0.2,0.3,0.5,0.4,0.9,0.5s0.7,0,0.9-0.3c0.1-0.2,0.1-0.5,0.1-0.8C9.4,3.9,9.2,3.5,8.9,3.1c0,0-0.1-0.1-0.1-0.2c0.1,0,0.3,0,0.4,0
			c0.5-0.1,0.6-0.6,0.6-1c0-0.2,0-0.4-0.1-0.6c0,0,0,0,0.1,0c0.1,0.5,0.3,0.9,0.7,1.3c0.2,0.2,0.4,0.1,0.6,0C11.1,2.8,11,3,11,3.2
			c0,0.6,0,1.2,0.4,1.7c0.1,0.2,0.3,0.3,0.5,0.3s0.3-0.2,0.4-0.3c0.2-0.3,0.3-0.7,0.5-1.1c0.6,0.7,1.2,0.4,1.8-0.1
			c-0.3,0.8-0.5,1.6,0.2,2.4c-0.6,0-1.1,0.3-1.4,0.8c-0.3,0.5-0.2,1.1,0.1,1.6c-0.2,0-0.4-0.1-0.6-0.1c-0.2,0-0.4-0.1-0.6-0.1
			c-0.4,0-0.7,0.1-0.7,0.5c0,0.4,0.1,0.7,0.2,1.1c0.2,0.5,0.3,1,0.3,1.5c0,0.7,0.1,1.3,0.1,2c0,0.6-0.1,1.2-0.1,1.8
			c0,0.3,0,0.6-0.1,1c0,0.1,0,0.2,0,0.3s0.2,0,0.3,0.1c0.2,0.1,0.4,0.2,0.5,0.4v0.1c-0.2,0-0.4-0.2-0.6-0.2c0.1,0.3,0.1,0.5,0.2,0.8
			c-0.2,0-0.3-0.1-0.3-0.3c0-0.2-0.1-0.4-0.3-0.5c-0.1,0.1-0.3,0.3-0.3,0.5c0,0.1,0,0.1,0,0.2c-0.1,0.1-0.1,0.2-0.2,0.4
			C11.2,17.7,11.2,17.7,11.1,17.7z M11.7,6.7c0-0.4-0.3-0.6-0.6-0.4c-0.3,0.1-0.4,0.4-0.4,0.7c0,0.2,0.1,0.4,0.3,0.4
			c0.2,0.1,0.4,0,0.5-0.1C11.6,7.1,11.7,7,11.7,6.7z"/>
		<path id="XMLID_33_" class="st1" d="M11.6,6.9c0,0.2-0.1,0.3-0.3,0.3c-0.1,0-0.2-0.1-0.2-0.3c-0.1-0.2,0.1-0.3,0.2-0.3
			C11.5,6.6,11.6,6.7,11.6,6.9z"/>
	</g>
</g>
<polyline id="XMLID_4_" class="st2" points="19.2,20.4 19.3,20.3 19.3,20.3 19,20.3 "/>
</svg>
