<?xml version="1.0" encoding="utf-8"?>
<!-- Generator: Adobe Illustrator 24.0.2, SVG Export Plug-In . SVG Version: 6.00 Build 0)  -->
<svg version="1.1" id="Layer_1" xmlns="http://www.w3.org/2000/svg" xmlns:xlink="http://www.w3.org/1999/xlink" x="0px" y="0px"
	 viewBox="0 0 1909.7 501.9" style="enable-background:new 0 0 1909.7 501.9;" xml:space="preserve">
<style type="text/css">
	.st0{display:none;opacity:0.17;fill:#2E294E;}
	.st1{fill:#FB1D26;}
	.st2{fill:#F16371;}
	.st3{fill:#FF0000;}
</style>
<path class="st0" d="M904.5,151.4v-1.5h8.1v1.5h-3.1v8.6h-1.8v-8.6H904.5z M915.9,155.5v4.5h-1.8v-10.2h1.8v3.8h0.1
	c0.4-0.9,1.1-1.4,2.3-1.4c1.6,0,2.6,1,2.6,2.9v4.9H919v-4.6c0-1-0.6-1.6-1.5-1.6C916.5,153.8,915.9,154.4,915.9,155.5z M926,160.1
	c-2.3,0-3.7-1.5-3.7-3.9c0-2.4,1.4-4,3.6-4c1.9,0,3.5,1.2,3.5,3.9v0.6h-5.3c0,1.3,0.8,2.1,1.9,2.1c0.8,0,1.4-0.3,1.6-1l1.7,0.2
	C929,159.3,927.8,160.1,926,160.1z M924.1,155.5h3.6c0-1-0.7-1.8-1.7-1.8C924.9,153.7,924.2,154.5,924.1,155.5z M938.5,149.8h1.8
	v7.2c0,2-1.3,3.2-3.3,3.2c-1.8,0-3.2-1-3.2-2.8h1.8c0,0.8,0.6,1.3,1.4,1.3c0.9,0,1.4-0.6,1.4-1.6V149.8z M945.6,160.1
	c-2.2,0-3.7-1.6-3.7-3.9c0-2.4,1.4-3.9,3.7-3.9c2.2,0,3.7,1.6,3.7,3.9C949.2,158.6,947.8,160.1,945.6,160.1z M945.6,158.7
	c1.2,0,1.8-1.1,1.8-2.5s-0.6-2.5-1.8-2.5c-1.2,0-1.8,1.1-1.8,2.5S944.4,158.7,945.6,158.7z M955.6,156.8v-4.4h1.8v7.6h-1.7v-1.4
	h-0.1c-0.3,0.9-1.2,1.5-2.3,1.5c-1.5,0-2.5-1-2.5-2.9v-4.9h1.8v4.6c0,1,0.6,1.6,1.4,1.6C954.8,158.5,955.6,158,955.6,156.8z
	 M959.3,160v-7.6h1.7v1.3h0.1c0.3-0.9,1-1.4,1.9-1.4c0.2,0,0.5,0,0.6,0v1.7c-0.2,0-0.5-0.1-0.8-0.1c-1,0-1.7,0.7-1.7,1.7v4.5H959.3z
	 M966.6,155.5v4.5h-1.8v-7.6h1.7v1.3h0.1c0.3-0.9,1.1-1.4,2.3-1.4c1.6,0,2.6,1,2.6,2.9v4.9h-1.8v-4.6c0-1-0.6-1.6-1.5-1.6
	C967.3,153.8,966.6,154.4,966.6,155.5z M975.6,160.2c-1.5,0-2.6-0.8-2.6-2.3c0-1.7,1.4-2.2,2.9-2.3c1.3-0.1,1.9-0.2,1.9-0.7v0
	c0-0.8-0.5-1.2-1.3-1.2c-0.9,0-1.4,0.4-1.6,1l-1.7-0.2c0.4-1.4,1.6-2.1,3.2-2.1c1.5,0,3.1,0.6,3.1,2.6v5.1h-1.7v-1h-0.1
	C977.5,159.6,976.8,160.2,975.6,160.2z M976,158.8c1.1,0,1.8-0.7,1.8-1.6v-0.9c-0.2,0.2-1.2,0.3-1.7,0.4c-0.8,0.1-1.4,0.4-1.4,1.1
	C974.8,158.5,975.3,158.8,976,158.8z M983.2,149.8V160h-1.8v-10.2H983.2z M991.9,160.1c-2.2,0-3.7-1.6-3.7-3.9
	c0-2.4,1.4-3.9,3.7-3.9c2.2,0,3.7,1.6,3.7,3.9C995.5,158.6,994.1,160.1,991.9,160.1z M991.9,158.7c1.2,0,1.8-1.1,1.8-2.5
	s-0.6-2.5-1.8-2.5c-1.2,0-1.8,1.1-1.8,2.5S990.6,158.7,991.9,158.7z M1001,152.4v1.4h-1.6v6.2h-1.8v-6.2h-1.1v-1.4h1.1v-0.7
	c0-1.5,1.1-2.3,2.4-2.3c0.6,0,1.1,0.1,1.4,0.2l-0.4,1.4c-0.1,0-0.4-0.1-0.7-0.1c-0.7,0-0.9,0.3-0.9,0.9v0.6H1001z M914,172.9
	c0,3.3-2,5.2-4.7,5.2c-2.7,0-4.7-1.9-4.7-5.2c0-3.3,2-5.2,4.7-5.2C912,167.7,914,169.6,914,172.9z M912.1,172.9
	c0-2.3-1.2-3.6-2.8-3.6c-1.7,0-2.8,1.3-2.8,3.6c0,2.3,1.2,3.6,2.8,3.6C911,176.5,912.1,175.2,912.1,172.9z M915.7,180.9v-10.5h1.8
	v1.3h0.1c0.3-0.6,0.8-1.4,2.2-1.4c1.8,0,3.2,1.4,3.2,3.9c0,2.5-1.3,3.9-3.1,3.9c-1.3,0-1.9-0.8-2.2-1.3h-0.1v4.1H915.7z
	 M917.4,174.2c0,1.5,0.6,2.5,1.8,2.5c1.2,0,1.8-1,1.8-2.5c0-1.4-0.6-2.4-1.8-2.4C918.1,171.7,917.4,172.7,917.4,174.2z M927.8,178.1
	c-2.3,0-3.7-1.5-3.7-3.9c0-2.4,1.4-4,3.6-4c1.9,0,3.5,1.2,3.5,3.9v0.6h-5.3c0,1.3,0.8,2.1,1.9,2.1c0.8,0,1.4-0.3,1.6-1l1.7,0.2
	C930.8,177.3,929.6,178.1,927.8,178.1z M925.9,173.5h3.6c0-1-0.7-1.8-1.7-1.8C926.6,171.7,925.9,172.5,925.9,173.5z M934.5,173.5
	v4.5h-1.8v-7.6h1.7v1.3h0.1c0.3-0.9,1.1-1.4,2.3-1.4c1.6,0,2.6,1,2.6,2.9v4.9h-1.8v-4.6c0-1-0.6-1.6-1.5-1.6
	C935.2,171.8,934.5,172.4,934.5,173.5z M950.3,170.6c-0.1-0.9-0.8-1.4-1.9-1.4c-1.2,0-1.8,0.6-1.8,1.3c0,0.9,0.9,1.2,1.7,1.4l1,0.2
	c1.5,0.4,3,1.2,3,2.9c0,1.8-1.4,3-3.9,3c-2.4,0-3.9-1.1-4-3.2h1.8c0.1,1.1,1,1.6,2.1,1.6c1.2,0,2-0.6,2-1.5c0-0.8-0.7-1.1-1.8-1.4
	l-1.2-0.3c-1.7-0.4-2.7-1.3-2.7-2.7c0-1.8,1.6-3,3.7-3c2.2,0,3.6,1.2,3.7,2.9H950.3z M957.1,178.1c-2.2,0-3.7-1.6-3.7-3.9
	c0-2.4,1.4-3.9,3.7-3.9c2.2,0,3.7,1.6,3.7,3.9C960.8,176.6,959.4,178.1,957.1,178.1z M957.1,176.7c1.2,0,1.8-1.1,1.8-2.5
	s-0.6-2.5-1.8-2.5c-1.2,0-1.8,1.1-1.8,2.5S955.9,176.7,957.1,176.7z M967.2,174.8v-4.4h1.8v7.6h-1.7v-1.4h-0.1
	c-0.3,0.9-1.2,1.5-2.3,1.5c-1.5,0-2.5-1-2.5-2.9v-4.9h1.8v4.6c0,1,0.6,1.6,1.4,1.6C966.4,176.5,967.2,176,967.2,174.8z M970.8,178
	v-7.6h1.7v1.3h0.1c0.3-0.9,1-1.4,1.9-1.4c0.4,0,0.8,0.1,1,0.3L975,172c-0.2-0.1-0.4-0.2-0.7-0.2c-0.9,0-1.7,0.7-1.7,1.6v4.5H970.8z
	 M980,178.1c-2.3,0-3.7-1.6-3.7-3.9c0-2.3,1.4-3.9,3.6-3.9c1.9,0,3.2,1.1,3.3,2.7h-1.7c-0.1-0.7-0.7-1.3-1.5-1.3
	c-1.1,0-1.8,0.9-1.8,2.5c0,1.6,0.7,2.5,1.8,2.5c0.8,0,1.4-0.5,1.5-1.3h1.7C983.1,177,981.9,178.1,980,178.1z M988.1,178.1
	c-2.3,0-3.7-1.5-3.7-3.9c0-2.4,1.4-4,3.6-4c1.9,0,3.5,1.2,3.5,3.9v0.6h-5.3c0,1.3,0.8,2.1,1.9,2.1c0.8,0,1.4-0.3,1.6-1l1.7,0.2
	C991.1,177.3,989.9,178.1,988.1,178.1z M986.2,173.5h3.6c0-1-0.7-1.8-1.7-1.8C986.9,171.7,986.2,172.5,986.2,173.5z M1002.1,170.6
	c-0.1-0.9-0.8-1.4-1.9-1.4c-1.2,0-1.8,0.6-1.8,1.3c0,0.9,0.9,1.2,1.7,1.4l1,0.2c1.5,0.4,3,1.2,3,2.9c0,1.8-1.4,3-3.9,3
	c-2.4,0-3.9-1.1-4-3.2h1.8c0.1,1.1,1,1.6,2.1,1.6c1.2,0,2-0.6,2-1.5c0-0.8-0.7-1.1-1.8-1.4l-1.2-0.3c-1.7-0.4-2.7-1.3-2.7-2.7
	c0-1.8,1.6-3,3.7-3c2.2,0,3.6,1.2,3.7,2.9H1002.1z M1008.9,178.1c-2.2,0-3.7-1.6-3.7-3.9c0-2.4,1.4-3.9,3.7-3.9
	c2.2,0,3.7,1.6,3.7,3.9C1012.6,176.6,1011.1,178.1,1008.9,178.1z M1008.9,176.7c1.2,0,1.8-1.1,1.8-2.5s-0.6-2.5-1.8-2.5
	c-1.2,0-1.8,1.1-1.8,2.5S1007.7,176.7,1008.9,176.7z M1018,170.4v1.4h-1.6v6.2h-1.8v-6.2h-1.1v-1.4h1.1v-0.7c0-1.5,1.1-2.3,2.4-2.3
	c0.6,0,1.1,0.1,1.4,0.2l-0.4,1.4c-0.1,0-0.4-0.1-0.7-0.1c-0.7,0-0.9,0.3-0.9,0.9v0.6H1018z M1023.2,170.4v1.4h-1.5v3.9
	c0,0.7,0.4,0.9,0.8,0.9c0.2,0,0.4,0,0.5-0.1l0.3,1.4c-0.2,0.1-0.5,0.2-1.1,0.2c-1.4,0-2.4-0.7-2.4-2.1v-4.2h-1.1v-1.4h1.1v-1.8h1.8
	v1.8H1023.2z M1026.3,178l-2.2-7.6h1.8l1.3,5.4h0.1l1.4-5.4h1.8l1.4,5.3h0.1l1.3-5.3h1.8l-2.2,7.6h-1.9l-1.4-5.2h-0.1l-1.4,5.2
	H1026.3z M1038.7,178.2c-1.5,0-2.6-0.8-2.6-2.3c0-1.7,1.4-2.2,2.9-2.3c1.3-0.1,1.9-0.2,1.9-0.7v0c0-0.8-0.5-1.2-1.3-1.2
	c-0.9,0-1.4,0.4-1.6,1l-1.7-0.2c0.4-1.4,1.6-2.1,3.2-2.1c1.5,0,3.1,0.6,3.1,2.6v5.1h-1.7v-1h-0.1
	C1040.6,177.6,1039.9,178.2,1038.7,178.2z M1039.1,176.8c1.1,0,1.8-0.7,1.8-1.6v-0.9c-0.2,0.2-1.2,0.3-1.7,0.4
	c-0.8,0.1-1.4,0.4-1.4,1.1C1037.8,176.5,1038.4,176.8,1039.1,176.8z M1044.5,178v-7.6h1.7v1.3h0.1c0.3-0.9,1-1.4,1.9-1.4
	c0.4,0,0.8,0.1,1,0.3l-0.6,1.5c-0.2-0.1-0.4-0.2-0.7-0.2c-0.9,0-1.7,0.7-1.7,1.6v4.5H1044.5z M1053.7,178.1c-2.3,0-3.7-1.5-3.7-3.9
	c0-2.4,1.4-4,3.6-4c1.9,0,3.5,1.2,3.5,3.9v0.6h-5.3c0,1.3,0.8,2.1,1.9,2.1c0.8,0,1.4-0.3,1.6-1l1.7,0.2
	C1056.7,177.3,1055.5,178.1,1053.7,178.1z M1051.8,173.5h3.6c0-1-0.7-1.8-1.7-1.8C1052.5,171.7,1051.8,172.5,1051.8,173.5z"/>
<g>
	<path class="st1" d="M1262,40.8c0.1-2.3,0.2-5.9,0.6-9.5c1.1-11.5,1.3-12.1,10.2-9.6c31.9,9.1,41.4,34.6,36,68.8
		c-0.8,5.1-4.8,5.4-8,5.9c-13.2,2.1-29.5-10.5-35-26.9C1262.9,60.7,1262.2,51.5,1262,40.8z"/>
	<path class="st2" d="M1311.6,89.3c2.1-12.3,3.3-23.7,1.3-35.4c-1.7-9.7-5.4-17.9-12.2-23.5c-2.7-2.2-3.4-4.1-1.2-7.3
		c4.5-6.5,9.2-12.7,15.1-17.5c2.1-1.7,3.6-1.6,5.5,0.6C1338.6,27.1,1334.4,73,1311.6,89.3z"/>
	<g>
		<path class="st3" d="M0,25h47.6l107.9,182l32.2,59.9h1.8c-1.9-29.2-4.8-61.8-4.8-92.1V25h36v287.9h-41.1L66.6,130.7L32.9,70.9H31
			c2,29.3,5.1,60.2,5.1,90.4v151.5H0V25z"/>
		<path class="st3" d="M258.5,208.6c0-69.3,50.4-112,103.3-112c58.6,0,91.7,39,91.7,99.9c0,7.6-0.7,15.2-1.8,20.5H297
			c2.8,45.1,32.6,74.4,76.4,74.4c22.1,0,40.2-6.6,57.2-17l13.9,23.6c-20.2,12.2-44.6,22.1-75.9,22.1
			C307.3,320,258.5,278.5,258.5,208.6z M419.2,191.9c0-42.7-20.7-65.9-56.7-65.9c-32.3,0-61.2,24-65.9,65.9H419.2z"/>
		<path class="st3" d="M479.6,234.8V100.1h40.5v130.3c0,39.7,12.8,56.6,42.8,56.6c23.2,0,39.3-10.8,60.8-35.9v-151h40.5v212.8h-32.5
			l-3.3-33.4h-1.3c-21.5,23.3-44.7,38.6-76.6,38.6C501.6,318.2,479.6,289.2,479.6,234.8z"/>
		<path class="st3" d="M712.6,100.1h34l3.2,37.5h1.3c15.5-26.2,38.2-42.6,63.3-42.6c9.9,0,16.8,1.2,23.8,4.2l-7,30.6
			c-7.7-2.2-12.7-3.4-21.6-3.4c-18.8,0-41.3,12.5-56.3,47.4v139h-40.5V100.1z"/>
		<path class="st3" d="M828.5,207.7c0-71.1,50.2-112,106.5-112s106.5,40.9,106.5,112c0,70.5-50.2,111.4-106.5,111.4
			S828.5,278.2,828.5,207.7z M1001.4,207.7c0-48.8-26.8-82-66.3-82s-66.3,33.2-66.3,82s26.8,81.4,66.3,81.4
			S1001.4,256.5,1001.4,207.7z"/>
		<path class="st3" d="M1075.1,29.2h40.5v254.5h135.1v29.2h-175.7V29.2z"/>
		<path class="st3" d="M1276.6,100.1h40.5v212.8h-40.5V100.1z"/>
		<path class="st3" d="M1403,292h-4.6l-3.4,20.9h-29.5V0h40.5v85.9l-1.3,38.4c21.9-16.9,48.6-29.9,75.3-29.9
			c61.9,0,95.2,43,95.2,109.1c0,73.2-49,115.9-103.8,115.9C1449,319.5,1424.2,309.2,1403,292z M1528.1,204.5
			c0-47-17.3-78.5-60.6-78.5c-19.5,0-39.7,9.9-61.5,29.1v111.6c20.2,16.2,40.8,22.1,56,22.1C1500,288.8,1528.1,257.1,1528.1,204.5z"
			/>
		<path class="st3" d="M1598.5,100.1h34l3.2,37.5h1.3c15.5-26.2,38.2-42.6,63.3-42.6c9.9,0,16.8,1.2,23.8,4.2l-7,30.6
			c-7.7-2.2-12.7-3.4-21.6-3.4c-18.8,0-41.3,12.5-56.3,47.4v139h-40.5V100.1z"/>
		<path class="st3" d="M1714.6,208.6c0-69.3,50.4-112,103.3-112c58.6,0,91.7,39,91.7,99.9c0,7.6-0.7,15.2-1.8,20.5h-154.8
			c2.8,45.1,32.6,74.4,76.4,74.4c22.1,0,40.2-6.6,57.2-17l13.9,23.6c-20.2,12.2-44.6,22.1-75.9,22.1
			C1763.4,320,1714.6,278.5,1714.6,208.6z M1875.3,191.9c0-42.7-20.7-65.9-56.7-65.9c-32.3,0-61.2,24-65.9,65.9H1875.3z"/>
	</g>
</g>
<g>
	<path d="M5.7,346.1h26.9c17.5,0,30,6.9,30,26.6c0,18.8-12.5,27.9-30,27.9h-16v39.9H5.7V346.1z M31,390.8c13.3,0,20.7-5.9,20.7-18.2
		c0-12.4-7.3-16.8-20.7-16.8H16.7v35H31z M30.5,397.3l8.6-6.2l26.2,49.4H52.8L30.5,397.3z"/>
	<path d="M80.1,346.1h49.4v10.2H91v29.6h32.5V396H91v34.3h39.8v10.2H80.1V346.1z"/>
	<path d="M149,346.1h24.5c19.2,0,32.2,7.1,32.2,27.8c0,19.9-12.9,29.1-31.7,29.1h-14.1v37.4H149V346.1z M172.7,393.3
		c15,0,22.2-6,22.2-19.4c0-13.6-7.6-18-22.7-18h-12.2v37.4H172.7z"/>
	<path d="M223,346.1h26.9c17.5,0,30,6.9,30,26.6c0,18.8-12.5,27.9-30,27.9h-16v39.9H223V346.1z M248.3,390.8
		c13.3,0,20.7-5.9,20.7-18.2c0-12.4-7.3-16.8-20.7-16.8h-14.4v35H248.3z M247.7,397.3l8.6-6.2l26.2,49.4h-12.4L247.7,397.3z"/>
	<path d="M292.4,392.9c0-30.2,15.1-48.6,36.7-48.6c21.5,0,36.7,18.4,36.7,48.6c0,30.2-15.1,49.2-36.7,49.2
		C307.5,442.2,292.4,423.1,292.4,392.9z M354.4,392.9c0-23.5-10.1-38-25.4-38c-15.3,0-25.4,14.5-25.4,38c0,23.5,10.1,38.7,25.4,38.7
		C344.4,431.6,354.4,416.4,354.4,392.9z"/>
	<path d="M384.2,346.1h21.5c26.4,0,40.5,16.9,40.5,46.8c0,30-14.1,47.5-40,47.5h-21.9V346.1z M404.8,430.6
		c20.1,0,30.1-13.8,30.1-37.7c0-23.8-10-37-30.1-37h-9.7v74.7H404.8z"/>
	<path d="M464.2,401.5v-55.4h10.9v55.7c0,22.7,8.7,29.8,19.9,29.8c11.4,0,20.3-7.1,20.3-29.8v-55.7h10.5v55.4
		c0,30.3-13.3,40.7-30.8,40.7C477.5,442.2,464.2,431.8,464.2,401.5z"/>
	<path d="M543.9,393.3c0-30.4,16.3-49,38.1-49c10.4,0,18.6,5.6,23.6,11.6l-6,7.8c-4.5-5.3-10.2-8.9-17.4-8.9
		c-16.2,0-27,14.6-27,38.1c0,23.7,10.3,38.6,26.6,38.6c8.2,0,14.4-3.9,19.9-10.6l6,7.5c-6.8,8.7-15.2,13.6-26.3,13.6
		C559.9,442.2,543.9,424,543.9,393.3z"/>
	<path d="M623.5,346.1h10.9v94.3h-10.9V346.1z"/>
	<path d="M657.9,346.1h25.5c17.4,0,29.5,6.5,29.5,23.1c0,9.3-4.5,17.6-12.5,20.5v0.6c10.3,2.2,17.4,9.7,17.4,22.6
		c0,18.5-13.3,27.6-32.5,27.6h-27.4V346.1z M681.5,386.2c14.6,0,20.6-5.9,20.6-15.5c0-11-6.9-15.1-20.1-15.1h-13.2v30.6H681.5z
		 M683.7,430.9c14.7,0,23.3-5.8,23.3-18.5c0-11.6-8.3-16.9-23.3-16.9h-14.9v35.5H683.7z"/>
	<path d="M734.7,346.1h10.9v84.2h37.4v10.2h-48.4V346.1z"/>
	<path d="M798.3,346.1h49.4v10.2h-38.5v29.6h32.5V396h-32.5v34.3H849v10.2h-50.8V346.1z"/>
	<path d="M896.3,346.1h24.5c19.2,0,32.2,7.1,32.2,27.8c0,19.9-12.9,29.1-31.7,29.1h-14.1v37.4h-10.9V346.1z M919.9,393.3
		c15,0,22.2-6,22.2-19.4c0-13.6-7.6-18-22.7-18h-12.2v37.4H919.9z"/>
	<path d="M970.3,346.1h26.9c17.5,0,30,6.9,30,26.6c0,18.8-12.5,27.9-30,27.9h-16v39.9h-10.9V346.1z M995.6,390.8
		c13.3,0,20.7-5.9,20.7-18.2c0-12.4-7.3-16.8-20.7-16.8h-14.4v35H995.6z M995,397.3l8.6-6.2l26.2,49.4h-12.4L995,397.3z"/>
	<path d="M1044.7,346.1h49.4v10.2h-38.5v29.6h32.5V396h-32.5v34.3h39.8v10.2h-50.8V346.1z"/>
	<path d="M1113.5,346.1h24.5c19.2,0,32.2,7.1,32.2,27.8c0,19.9-12.9,29.1-31.7,29.1h-14.1v37.4h-10.9V346.1z M1137.2,393.3
		c15,0,22.2-6,22.2-19.4c0-13.6-7.6-18-22.7-18h-12.2v37.4H1137.2z"/>
	<path d="M1187.5,346.1h26.9c17.5,0,30,6.9,30,26.6c0,18.8-12.5,27.9-30,27.9h-16v39.9h-10.9V346.1z M1212.8,390.8
		c13.3,0,20.7-5.9,20.7-18.2c0-12.4-7.3-16.8-20.7-16.8h-14.4v35H1212.8z M1212.2,397.3l8.6-6.2l26.2,49.4h-12.4L1212.2,397.3z"/>
	<path d="M1261.9,346.1h10.9v94.3h-10.9V346.1z"/>
	<path d="M1296.3,346.1h11.3l31,59.3l9.3,19.5h0.5c-0.6-9.5-1.4-20.2-1.4-30v-48.8h10.4v94.3h-11.3l-31-59.4l-9.3-19.5h-0.5
		c0.6,9.5,1.4,19.6,1.4,29.5v49.4h-10.4V346.1z"/>
	<path d="M1398.7,356.2h-26v-10.2h62.8v10.2h-26v84.2h-10.9V356.2z"/>
	<path d="M1473.8,428.2l6.5-8.2c6.2,7,14.8,11.7,23.7,11.7c11.3,0,17.9-6.2,17.9-15.3c0-9.6-6.2-12.7-14.3-16.6l-12.3-6
		c-8-3.8-17.4-10.4-17.4-24.3c0-14.4,11.4-25,27-25c10.2,0,19.2,4.8,25.3,11.7l-5.8,7.7c-5.3-5.5-11.5-8.8-19.5-8.8
		c-9.6,0-16,5.3-16,13.8c0,9.1,7.5,12.5,14.2,15.6l12.2,5.8c9.9,4.7,17.7,11.2,17.7,25.2c0,14.9-11.2,26.8-29.2,26.8
		C1491.8,442.2,1481.3,436.8,1473.8,428.2z"/>
	<path d="M1549.9,346.1h49.4v10.2h-38.5v29.6h32.5V396h-32.5v34.3h39.8v10.2h-50.8V346.1z"/>
	<path d="M1618.7,346.1h26.9c17.5,0,30,6.9,30,26.6c0,18.8-12.5,27.9-30,27.9h-16v39.9h-10.9V346.1z M1644,390.8
		c13.3,0,20.7-5.9,20.7-18.2c0-12.4-7.3-16.8-20.7-16.8h-14.4v35H1644z M1643.5,397.3l8.6-6.2l26.2,49.4h-12.4L1643.5,397.3z"/>
	<path d="M1682.1,346.1h11.6l13.8,51c3,11.1,5.1,20.1,8.3,31.2h0.5c3.2-11.1,5.3-20.1,8.3-31.2l13.7-51h11.1l-27.2,94.3h-12.6
		L1682.1,346.1z"/>
	<path d="M1760.6,346.1h49.4v10.2h-38.5v29.6h32.5V396h-32.5v34.3h39.8v10.2h-50.8V346.1z"/>
	<path d="M1829.4,346.1h26.9c17.5,0,30,6.9,30,26.6c0,18.8-12.5,27.9-30,27.9h-16v39.9h-10.9V346.1z M1854.8,390.8
		c13.3,0,20.7-5.9,20.7-18.2c0-12.4-7.3-16.8-20.7-16.8h-14.4v35H1854.8z M1854.2,397.3l8.6-6.2l26.2,49.4h-12.4L1854.2,397.3z"/>
</g>
</svg>
