<?xml version="1.0" encoding="utf-8"?>
<!-- Generator: Adobe Illustrator 24.0.2, SVG Export Plug-In . SVG Version: 6.00 Build 0)  -->
<svg version="1.1" id="Layer_1" xmlns="http://www.w3.org/2000/svg" xmlns:xlink="http://www.w3.org/1999/xlink" x="0px" y="0px"
	 viewBox="0 0 1909.7 501.9" style="enable-background:new 0 0 1909.7 501.9;" xml:space="preserve">
<style type="text/css">
	.st0{display:none;opacity:0.17;fill:#2E294E;enable-background:new    ;}
	.st1{fill:#1DAF08;}
	.st2{fill:#81F284;}
	.st3{fill:#FF0000;}
</style>
<path class="st0" d="M904.5,151.4v-1.5h8.1v1.5h-3.1v8.6h-1.8v-8.6H904.5z M915.9,155.5v4.5h-1.8v-10.2h1.8v3.8h0.1
	c0.4-0.9,1.1-1.4,2.3-1.4c1.6,0,2.6,1,2.6,2.9v4.9H919v-4.6c0-1-0.6-1.6-1.5-1.6C916.5,153.8,915.9,154.4,915.9,155.5z M926,160.1
	c-2.3,0-3.7-1.5-3.7-3.9s1.4-4,3.6-4c1.9,0,3.5,1.2,3.5,3.9v0.6h-5.3c0,1.3,0.8,2.1,1.9,2.1c0.8,0,1.4-0.3,1.6-1l1.7,0.2
	C929,159.3,927.8,160.1,926,160.1z M924.1,155.5h3.6c0-1-0.7-1.8-1.7-1.8C924.9,153.7,924.2,154.5,924.1,155.5z M938.5,149.8h1.8
	v7.2c0,2-1.3,3.2-3.3,3.2c-1.8,0-3.2-1-3.2-2.8h1.8c0,0.8,0.6,1.3,1.4,1.3c0.9,0,1.4-0.6,1.4-1.6L938.5,149.8L938.5,149.8z
	 M945.6,160.1c-2.2,0-3.7-1.6-3.7-3.9c0-2.4,1.4-3.9,3.7-3.9c2.2,0,3.7,1.6,3.7,3.9C949.2,158.6,947.8,160.1,945.6,160.1z
	 M945.6,158.7c1.2,0,1.8-1.1,1.8-2.5s-0.6-2.5-1.8-2.5s-1.8,1.1-1.8,2.5S944.4,158.7,945.6,158.7z M955.6,156.8v-4.4h1.8v7.6h-1.7
	v-1.4h-0.1c-0.3,0.9-1.2,1.5-2.3,1.5c-1.5,0-2.5-1-2.5-2.9v-4.9h1.8v4.6c0,1,0.6,1.6,1.4,1.6C954.8,158.5,955.6,158,955.6,156.8z
	 M959.3,160v-7.6h1.7v1.3h0.1c0.3-0.9,1-1.4,1.9-1.4c0.2,0,0.5,0,0.6,0v1.7c-0.2,0-0.5-0.1-0.8-0.1c-1,0-1.7,0.7-1.7,1.7v4.5
	L959.3,160L959.3,160z M966.6,155.5v4.5h-1.8v-7.6h1.7v1.3h0.1c0.3-0.9,1.1-1.4,2.3-1.4c1.6,0,2.6,1,2.6,2.9v4.9h-1.8v-4.6
	c0-1-0.6-1.6-1.5-1.6C967.3,153.8,966.6,154.4,966.6,155.5z M975.6,160.2c-1.5,0-2.6-0.8-2.6-2.3c0-1.7,1.4-2.2,2.9-2.3
	c1.3-0.1,1.9-0.2,1.9-0.7l0,0c0-0.8-0.5-1.2-1.3-1.2c-0.9,0-1.4,0.4-1.6,1l-1.7-0.2c0.4-1.4,1.6-2.1,3.2-2.1c1.5,0,3.1,0.6,3.1,2.6
	v5.1h-1.7v-1h-0.1C977.5,159.6,976.8,160.2,975.6,160.2z M976,158.8c1.1,0,1.8-0.7,1.8-1.6v-0.9c-0.2,0.2-1.2,0.3-1.7,0.4
	c-0.8,0.1-1.4,0.4-1.4,1.1C974.8,158.5,975.3,158.8,976,158.8z M983.2,149.8V160h-1.8v-10.2H983.2z M991.9,160.1
	c-2.2,0-3.7-1.6-3.7-3.9c0-2.4,1.4-3.9,3.7-3.9c2.2,0,3.7,1.6,3.7,3.9C995.5,158.6,994.1,160.1,991.9,160.1z M991.9,158.7
	c1.2,0,1.8-1.1,1.8-2.5s-0.6-2.5-1.8-2.5s-1.8,1.1-1.8,2.5S990.6,158.7,991.9,158.7z M1001,152.4v1.4h-1.6v6.2h-1.8v-6.2h-1.1v-1.4
	h1.1v-0.7c0-1.5,1.1-2.3,2.4-2.3c0.6,0,1.1,0.1,1.4,0.2l-0.4,1.4c-0.1,0-0.4-0.1-0.7-0.1c-0.7,0-0.9,0.3-0.9,0.9v0.6L1001,152.4
	L1001,152.4z M914,172.9c0,3.3-2,5.2-4.7,5.2s-4.7-1.9-4.7-5.2s2-5.2,4.7-5.2S914,169.6,914,172.9z M912.1,172.9
	c0-2.3-1.2-3.6-2.8-3.6c-1.7,0-2.8,1.3-2.8,3.6s1.2,3.6,2.8,3.6C911,176.5,912.1,175.2,912.1,172.9z M915.7,180.9v-10.5h1.8v1.3h0.1
	c0.3-0.6,0.8-1.4,2.2-1.4c1.8,0,3.2,1.4,3.2,3.9s-1.3,3.9-3.1,3.9c-1.3,0-1.9-0.8-2.2-1.3h-0.1v4.1H915.7z M917.4,174.2
	c0,1.5,0.6,2.5,1.8,2.5s1.8-1,1.8-2.5c0-1.4-0.6-2.4-1.8-2.4C918.1,171.7,917.4,172.7,917.4,174.2z M927.8,178.1
	c-2.3,0-3.7-1.5-3.7-3.9s1.4-4,3.6-4c1.9,0,3.5,1.2,3.5,3.9v0.6h-5.3c0,1.3,0.8,2.1,1.9,2.1c0.8,0,1.4-0.3,1.6-1l1.7,0.2
	C930.8,177.3,929.6,178.1,927.8,178.1z M925.9,173.5h3.6c0-1-0.7-1.8-1.7-1.8C926.6,171.7,925.9,172.5,925.9,173.5z M934.5,173.5
	v4.5h-1.8v-7.6h1.7v1.3h0.1c0.3-0.9,1.1-1.4,2.3-1.4c1.6,0,2.6,1,2.6,2.9v4.9h-1.8v-4.6c0-1-0.6-1.6-1.5-1.6
	C935.2,171.8,934.5,172.4,934.5,173.5z M950.3,170.6c-0.1-0.9-0.8-1.4-1.9-1.4c-1.2,0-1.8,0.6-1.8,1.3c0,0.9,0.9,1.2,1.7,1.4l1,0.2
	c1.5,0.4,3,1.2,3,2.9c0,1.8-1.4,3-3.9,3c-2.4,0-3.9-1.1-4-3.2h1.8c0.1,1.1,1,1.6,2.1,1.6c1.2,0,2-0.6,2-1.5c0-0.8-0.7-1.1-1.8-1.4
	l-1.2-0.3c-1.7-0.4-2.7-1.3-2.7-2.7c0-1.8,1.6-3,3.7-3c2.2,0,3.6,1.2,3.7,2.9h-1.7V170.6z M957.1,178.1c-2.2,0-3.7-1.6-3.7-3.9
	c0-2.4,1.4-3.9,3.7-3.9c2.2,0,3.7,1.6,3.7,3.9C960.8,176.6,959.4,178.1,957.1,178.1z M957.1,176.7c1.2,0,1.8-1.1,1.8-2.5
	s-0.6-2.5-1.8-2.5s-1.8,1.1-1.8,2.5S955.9,176.7,957.1,176.7z M967.2,174.8v-4.4h1.8v7.6h-1.7v-1.4h-0.1c-0.3,0.9-1.2,1.5-2.3,1.5
	c-1.5,0-2.5-1-2.5-2.9v-4.9h1.8v4.6c0,1,0.6,1.6,1.4,1.6C966.4,176.5,967.2,176,967.2,174.8z M970.8,178v-7.6h1.7v1.3h0.1
	c0.3-0.9,1-1.4,1.9-1.4c0.4,0,0.8,0.1,1,0.3L975,172c-0.2-0.1-0.4-0.2-0.7-0.2c-0.9,0-1.7,0.7-1.7,1.6v4.5L970.8,178L970.8,178z
	 M980,178.1c-2.3,0-3.7-1.6-3.7-3.9c0-2.3,1.4-3.9,3.6-3.9c1.9,0,3.2,1.1,3.3,2.7h-1.7c-0.1-0.7-0.7-1.3-1.5-1.3
	c-1.1,0-1.8,0.9-1.8,2.5s0.7,2.5,1.8,2.5c0.8,0,1.4-0.5,1.5-1.3h1.7C983.1,177,981.9,178.1,980,178.1z M988.1,178.1
	c-2.3,0-3.7-1.5-3.7-3.9s1.4-4,3.6-4c1.9,0,3.5,1.2,3.5,3.9v0.6h-5.3c0,1.3,0.8,2.1,1.9,2.1c0.8,0,1.4-0.3,1.6-1l1.7,0.2
	C991.1,177.3,989.9,178.1,988.1,178.1z M986.2,173.5h3.6c0-1-0.7-1.8-1.7-1.8C986.9,171.7,986.2,172.5,986.2,173.5z M1002.1,170.6
	c-0.1-0.9-0.8-1.4-1.9-1.4c-1.2,0-1.8,0.6-1.8,1.3c0,0.9,0.9,1.2,1.7,1.4l1,0.2c1.5,0.4,3,1.2,3,2.9c0,1.8-1.4,3-3.9,3
	c-2.4,0-3.9-1.1-4-3.2h1.8c0.1,1.1,1,1.6,2.1,1.6c1.2,0,2-0.6,2-1.5c0-0.8-0.7-1.1-1.8-1.4l-1.2-0.3c-1.7-0.4-2.7-1.3-2.7-2.7
	c0-1.8,1.6-3,3.7-3c2.2,0,3.6,1.2,3.7,2.9h-1.7V170.6z M1008.9,178.1c-2.2,0-3.7-1.6-3.7-3.9c0-2.4,1.4-3.9,3.7-3.9
	c2.2,0,3.7,1.6,3.7,3.9C1012.6,176.6,1011.1,178.1,1008.9,178.1z M1008.9,176.7c1.2,0,1.8-1.1,1.8-2.5s-0.6-2.5-1.8-2.5
	s-1.8,1.1-1.8,2.5S1007.7,176.7,1008.9,176.7z M1018,170.4v1.4h-1.6v6.2h-1.8v-6.2h-1.1v-1.4h1.1v-0.7c0-1.5,1.1-2.3,2.4-2.3
	c0.6,0,1.1,0.1,1.4,0.2l-0.4,1.4c-0.1,0-0.4-0.1-0.7-0.1c-0.7,0-0.9,0.3-0.9,0.9v0.6L1018,170.4L1018,170.4z M1023.2,170.4v1.4h-1.5
	v3.9c0,0.7,0.4,0.9,0.8,0.9c0.2,0,0.4,0,0.5-0.1l0.3,1.4c-0.2,0.1-0.5,0.2-1.1,0.2c-1.4,0-2.4-0.7-2.4-2.1v-4.2h-1.1v-1.4h1.1v-1.8
	h1.8v1.8L1023.2,170.4L1023.2,170.4z M1026.3,178l-2.2-7.6h1.8l1.3,5.4h0.1l1.4-5.4h1.8l1.4,5.3h0.1l1.3-5.3h1.8l-2.2,7.6h-1.9
	l-1.4-5.2h-0.1l-1.4,5.2H1026.3z M1038.7,178.2c-1.5,0-2.6-0.8-2.6-2.3c0-1.7,1.4-2.2,2.9-2.3c1.3-0.1,1.9-0.2,1.9-0.7l0,0
	c0-0.8-0.5-1.2-1.3-1.2c-0.9,0-1.4,0.4-1.6,1l-1.7-0.2c0.4-1.4,1.6-2.1,3.2-2.1c1.5,0,3.1,0.6,3.1,2.6v5.1h-1.7v-1h-0.1
	C1040.6,177.6,1039.9,178.2,1038.7,178.2z M1039.1,176.8c1.1,0,1.8-0.7,1.8-1.6v-0.9c-0.2,0.2-1.2,0.3-1.7,0.4
	c-0.8,0.1-1.4,0.4-1.4,1.1C1037.8,176.5,1038.4,176.8,1039.1,176.8z M1044.5,178v-7.6h1.7v1.3h0.1c0.3-0.9,1-1.4,1.9-1.4
	c0.4,0,0.8,0.1,1,0.3l-0.6,1.5c-0.2-0.1-0.4-0.2-0.7-0.2c-0.9,0-1.7,0.7-1.7,1.6v4.5L1044.5,178L1044.5,178z M1053.7,178.1
	c-2.3,0-3.7-1.5-3.7-3.9s1.4-4,3.6-4c1.9,0,3.5,1.2,3.5,3.9v0.6h-5.3c0,1.3,0.8,2.1,1.9,2.1c0.8,0,1.4-0.3,1.6-1l1.7,0.2
	C1056.7,177.3,1055.5,178.1,1053.7,178.1z M1051.8,173.5h3.6c0-1-0.7-1.8-1.7-1.8C1052.5,171.7,1051.8,172.5,1051.8,173.5z"/>
<g>
	<path class="st1" d="M1262,102.8c0.1-2.3,0.2-5.9,0.6-9.5c1.1-11.5,1.3-12.1,10.2-9.6c31.9,9.1,41.4,34.6,36,68.8
		c-0.8,5.1-4.8,5.4-8,5.9c-13.2,2.1-29.5-10.5-35-26.9C1262.9,122.7,1262.2,113.5,1262,102.8z"/>
	<path class="st2" d="M1311.6,151.3c2.1-12.3,3.3-23.7,1.3-35.4c-1.7-9.7-5.4-17.9-12.2-23.5c-2.7-2.2-3.4-4.1-1.2-7.3
		c4.5-6.5,9.2-12.7,15.1-17.5c2.1-1.7,3.6-1.6,5.5,0.6C1338.6,89.1,1334.4,135,1311.6,151.3z"/>
	<g>
		<path class="st3" d="M0,87h47.6l107.9,182l32.2,59.9h1.8c-1.9-29.2-4.8-61.8-4.8-92.1V87h36v287.9h-41.1l-113-182.2l-33.7-59.8H31
			c2,29.3,5.1,60.2,5.1,90.4v151.5H0V87z"/>
		<path class="st3" d="M258.5,270.6c0-69.3,50.4-112,103.3-112c58.6,0,91.7,39,91.7,99.9c0,7.6-0.7,15.2-1.8,20.5H297
			c2.8,45.1,32.6,74.4,76.4,74.4c22.1,0,40.2-6.6,57.2-17l13.9,23.6c-20.2,12.2-44.6,22.1-75.9,22.1
			C307.3,382,258.5,340.5,258.5,270.6z M419.2,253.9c0-42.7-20.7-65.9-56.7-65.9c-32.3,0-61.2,24-65.9,65.9H419.2z"/>
		<path class="st3" d="M479.6,296.8V162.1h40.5v130.3c0,39.7,12.8,56.6,42.8,56.6c23.2,0,39.3-10.8,60.8-35.9v-151h40.5v212.8h-32.5
			l-3.3-33.4h-1.3c-21.5,23.3-44.7,38.6-76.6,38.6C501.6,380.2,479.6,351.2,479.6,296.8z"/>
		<path class="st3" d="M712.6,162.1h34l3.2,37.5h1.3c15.5-26.2,38.2-42.6,63.3-42.6c9.9,0,16.8,1.2,23.8,4.2l-7,30.6
			c-7.7-2.2-12.7-3.4-21.6-3.4c-18.8,0-41.3,12.5-56.3,47.4v139h-40.5V162.1H712.6z"/>
		<path class="st3" d="M828.5,269.7c0-71.1,50.2-112,106.5-112s106.5,40.9,106.5,112c0,70.5-50.2,111.4-106.5,111.4
			S828.5,340.2,828.5,269.7z M1001.4,269.7c0-48.8-26.8-82-66.3-82s-66.3,33.2-66.3,82s26.8,81.4,66.3,81.4
			S1001.4,318.5,1001.4,269.7z"/>
		<path class="st3" d="M1075.1,91.2h40.5v254.5h135.1v29.2H1075L1075.1,91.2L1075.1,91.2z"/>
		<path class="st3" d="M1276.6,162.1h40.5v212.8h-40.5V162.1z"/>
		<path class="st3" d="M1403,354h-4.6l-3.4,20.9h-29.5V62h40.5v85.9l-1.3,38.4c21.9-16.9,48.6-29.9,75.3-29.9
			c61.9,0,95.2,43,95.2,109.1c0,73.2-49,115.9-103.8,115.9C1449,381.5,1424.2,371.2,1403,354z M1528.1,266.5
			c0-47-17.3-78.5-60.6-78.5c-19.5,0-39.7,9.9-61.5,29.1v111.6c20.2,16.2,40.8,22.1,56,22.1C1500,350.8,1528.1,319.1,1528.1,266.5z"
			/>
		<path class="st3" d="M1598.5,162.1h34l3.2,37.5h1.3c15.5-26.2,38.2-42.6,63.3-42.6c9.9,0,16.8,1.2,23.8,4.2l-7,30.6
			c-7.7-2.2-12.7-3.4-21.6-3.4c-18.8,0-41.3,12.5-56.3,47.4v139h-40.5V162.1H1598.5z"/>
		<path class="st3" d="M1714.6,270.6c0-69.3,50.4-112,103.3-112c58.6,0,91.7,39,91.7,99.9c0,7.6-0.7,15.2-1.8,20.5H1753
			c2.8,45.1,32.6,74.4,76.4,74.4c22.1,0,40.2-6.6,57.2-17l13.9,23.6c-20.2,12.2-44.6,22.1-75.9,22.1
			C1763.4,382,1714.6,340.5,1714.6,270.6z M1875.3,253.9c0-42.7-20.7-65.9-56.7-65.9c-32.3,0-61.2,24-65.9,65.9H1875.3z"/>
	</g>
</g>
</svg>
