<?xml version="1.0" encoding="utf-8"?>
<!-- Generator: Adobe Illustrator 24.0.2, SVG Export Plug-In . SVG Version: 6.00 Build 0)  -->
<svg version="1.1" id="Layer_1" xmlns="http://www.w3.org/2000/svg" xmlns:xlink="http://www.w3.org/1999/xlink" x="0px" y="0px"
	 width="22px" height="27.3px" viewBox="0 0 22 27.3" style="enable-background:new 0 0 22 27.3;" xml:space="preserve">
<style type="text/css">
	.st0{fill:none;stroke:#FFFFFF;stroke-width:0.5;stroke-miterlimit:10;}
	.st1{fill:#FFFFFF;}
	.st2{fill:none;}
</style>
<g id="XMLID_2_">
	<path id="XMLID_10_" class="st0" d="M21.1,3.2c0-1.5-0.9-2.3-2.3-2.3c-5.2,0-10.3,0-15.5,0c-1.6,0-2.4,0.8-2.4,2.4
		c0,3.1,0,6.1,0,9.2c0,3.2,0,6.3,0,9.5c0,1.3,0.9,2.2,2.3,2.2c0.3,0,0.4-0.1,0.4-0.4c0-0.4-0.2-0.4-0.5-0.5C2.4,23.2,2,22.7,2,22.1
		s0.3-1.1,0.9-1.3c0.3-0.1,0.6-0.1,1-0.1c5.1,0,10.2,0,15.2,0c1.3,0,2-0.7,2-2C21.1,13.6,21.1,8.4,21.1,3.2z"/>
	<path id="XMLID_35_" class="st0" d="M7.4,25.8c-0.6-0.3-1.1-0.9-1.7-0.9c-0.5,0-1,0.6-1.6,0.9c0-1.3,0-2.5,0-3.8
		c0-0.3,0.1-0.4,0.4-0.4c0.9,0,1.7,0,2.6,0c0.3,0,0.4,0.1,0.4,0.4C7.4,23.3,7.4,24.5,7.4,25.8z"/>
	<path id="XMLID_12_" class="st0" d="M19.3,24.1c0.1,0,0.2-0.1,0.3-0.2c0.2-0.2,0.4-0.4,0.6-0.6L8,23.4c-0.1,0.1-0.1,0.2-0.1,0.3
		c0,0.3,0.1,0.4,0.4,0.4c3.6,0,7.2,0,10.7,0C19.1,24.1,19.2,24.1,19.3,24.1z"/>
</g>
<g id="XMLID_5_">
	<g id="XMLID_1_">
		<path id="XMLID_42_" class="st1" d="M11.6,19.8c0-0.1,0-0.1,0-0.2s0.1-0.3,0-0.4c0-0.2,0.1-0.4,0.3-0.7c-0.3,0.1-0.7,0-0.9,0.4
			c-0.2-0.1-0.1-0.2,0-0.2c0.1-0.2,0.3-0.3,0.6-0.4c0.1,0,0.2,0,0.3,0s0.2-0.1,0.2-0.2c0.1-0.4,0.1-0.7,0.2-1.1
			c0.1-1.1,0.1-2.2,0.1-3.3c0-0.7-0.1-1.5-0.3-2.2c-0.1-0.5-0.3-1-0.4-1.5c0-0.1-0.1-0.3-0.2-0.4c-0.2-0.3-0.5-0.3-0.9-0.1
			C10.2,9.6,9.9,9.8,9.7,10c0,0,0,0-0.1,0c0-0.1,0.1-0.2,0.1-0.3c0.1-0.3,0.1-0.7,0-1C9.6,8.3,9.3,8.1,9,8C8.5,7.8,8,7.7,7.4,7.7
			c-0.1,0-0.3,0-0.4,0c0.3-0.5,0-0.8-0.3-1.1C6.5,6.4,6.3,6.3,6.1,6.1V6c0.3,0,0.5,0,0.8,0c0.4,0,0.8-0.3,0.9-0.7
			c0.2,0.3,0.6,0.5,1,0.6s0.8,0,1-0.4c0-0.2,0-0.5,0-0.8C9.6,4.2,9.4,3.8,9.1,3.4C9,3.4,9,3.3,8.9,3.2c0.2,0,0.3,0,0.4,0
			C9.9,3,10,2.5,10,2c0-0.2,0-0.4-0.1-0.6H10c0.2,0.5,0.4,1,0.8,1.4C11,3,11.3,3,11.5,2.8c0,0.3-0.1,0.5-0.1,0.7
			c-0.1,0.7-0.1,1.3,0.3,1.9c0.1,0.2,0.3,0.3,0.6,0.3c0.2,0,0.4-0.2,0.5-0.4c0.2-0.4,0.4-0.8,0.5-1.2c0.7,0.8,1.3,0.4,2-0.2
			c-0.4,0.9-0.6,1.8,0.2,2.7c-0.7,0.1-1.3,0.3-1.6,0.9S13.7,8.7,14,9.3c-0.2-0.1-0.4-0.1-0.6-0.1c-0.2,0-0.4-0.1-0.6-0.1
			c-0.4,0-0.8,0.1-0.7,0.6c0,0.4,0.1,0.8,0.2,1.2c0.2,0.5,0.3,1.1,0.3,1.7c0,0.7,0.1,1.5,0.1,2.2s-0.1,1.3-0.1,2
			c0,0.4-0.1,0.7-0.1,1.1c0,0.1,0,0.2,0,0.3c0,0.1,0.2,0,0.3,0.1c0.2,0.1,0.4,0.3,0.6,0.4v0.1c-0.3,0-0.4-0.3-0.7-0.3
			c0.1,0.3,0.1,0.6,0.2,0.9c-0.2,0-0.3-0.1-0.3-0.3c0-0.2-0.1-0.4-0.3-0.5c-0.1,0.2-0.4,0.3-0.3,0.6c0,0.1,0,0.1,0,0.2
			c-0.1,0.1-0.1,0.3-0.2,0.4C11.6,19.8,11.6,19.8,11.6,19.8z M12.2,7.4c0-0.4-0.4-0.7-0.7-0.5S11,7.4,11,7.7c0,0.2,0.1,0.4,0.3,0.5
			s0.4,0,0.6-0.1C12.1,7.9,12.2,7.7,12.2,7.4z"/>
		<path id="XMLID_33_" class="st1" d="M12,7.6C12,7.9,11.9,8,11.7,8s-0.3-0.1-0.3-0.3c0-0.2,0.2-0.4,0.3-0.4C12,7.3,12,7.4,12,7.6z"
			/>
	</g>
</g>
<polyline id="XMLID_4_" class="st2" points="264,275.3 265.6,273.4 265.6,273.3 258.1,273.4 "/>
</svg>
