<?xml version="1.0" encoding="utf-8"?>
<!-- Generator: Adobe Illustrator 24.0.2, SVG Export Plug-In . SVG Version: 6.00 Build 0)  -->
<svg version="1.1" id="Layer_1" xmlns="http://www.w3.org/2000/svg" xmlns:xlink="http://www.w3.org/1999/xlink" x="0px" y="0px"
	 viewBox="0 0 542 671.2" style="enable-background:new 0 0 542 671.2;" xml:space="preserve">
<style type="text/css">
	.st0{fill:none;stroke:#FF0000;stroke-width:12;stroke-miterlimit:10;}
	.st1{fill:#FF0000;}
	.st2{fill:none;}
</style>
<g id="XMLID_2_">
	<path id="XMLID_10_" class="st0" d="M537,66.7C537,27.6,514.4,5,475.4,5C339.6,5,203.7,5,67.8,5C26.6,5,5,26.9,5,68.6
		c0,80.9,0,161.7,0,242.6c0,83.1-0.1,166.2,0,249.3c0.1,35.5,24.7,58.9,59.6,58.3c8.8-0.2,11.2-2.6,11.5-11.4
		c0.4-10.3-4.5-11.3-12.8-12.4c-17.8-2.3-28.5-14.6-29.1-31.6c-0.6-16.2,8.9-29.8,24.9-33.5c8.1-1.9,16.7-2.3,25-2.3
		c133.6-0.1,267.3-0.1,400.9-0.1c34.5,0,51.9-17.2,51.9-51.5C537.1,339.6,537.1,203.1,537,66.7z"/>
	<path id="XMLID_35_" class="st0" d="M176.4,661.1c-16.1-9-30.1-23.1-43.9-22.9c-13.8,0.2-27.4,14.7-43.2,24.1
		c0-34.4,0.2-66.7-0.1-98.9c-0.1-7.8,3.3-9.3,10.1-9.2c22.4,0.3,44.8,0.4,67.1,0c8.6-0.2,10.2,3.6,10.1,11.1
		C176.2,596.7,176.4,628,176.4,661.1z"/>
	<path id="XMLID_12_" class="st0" d="M489,618.2c3.3-0.7,6.4-2.1,9.1-4.5c5.5-4.9,10.9-10.2,15.4-16.2l-321.9,0.9
		c-1.6,2-2,5-2.1,9.1c-0.2,9,2.9,11.3,11.6,11.3c94.2-0.3,188.4-0.1,282.7-0.3C485.5,618.5,487.2,618.4,489,618.2z"/>
</g>
<g id="XMLID_5_">
	<g id="XMLID_1_">
		<path id="XMLID_42_" class="st1" d="M285.6,502.8c0.4-1.8,0.9-3.5,1.1-5.3c0.4-3.7,1.4-7.4,0.9-11c-0.8-6.6,2-11.7,6.6-17.4
			c-9.2,1.3-18.1,0.2-22.5,9.5c-4.6-1.7-2.6-4.4-1.3-6.1c3.9-4.9,8.8-8.4,15.3-9.3c2.4-0.3,5-0.2,7-1.2c2.1-1.1,4.8-3.2,5.2-5.2
			c1.8-9.8,3-19.7,4.4-29.6c3.9-28.5,3.4-57.2,3-85.9c-0.3-19.7-2-39.4-7.3-58.5c-3.7-13.4-7.4-26.8-11.5-40.1
			c-1-3.4-2.8-6.9-5.1-9.7c-6.1-8-14.2-9-23.3-2.8c-7.7,5.2-15,11-22.4,16.6c-0.3,0.2-0.6,0.2-1.4,0.5c0.8-2.9,1.6-5.6,2.4-8.3
			c2.7-8.9,3.1-17.8,0.6-26.7c-2.9-10-10.7-15.7-19.8-19.6c-13.4-5.8-27.6-7.5-42.1-7.2c-3.3,0.1-6.6,0-10.6,0
			c6.8-12.4,0.2-20.9-8.3-28.6c-4.7-4.3-9.9-8.1-14.9-12.1c0-0.7,0-1.4,0-2c6.6,0,13.3,0.5,19.9-0.1c11.7-1.1,20-8,22.8-18.5
			c6.5,8.9,15.9,12.8,25.9,15.8c10.7,3.3,20.9-0.8,25.6-10.1c3.6-7.1,4-14.8,2.5-22.1c-2.8-12.8-9.2-24.2-17.8-34.3
			c-1.7-2-3.2-4.2-4.6-6.1c4.2-0.2,8,0.2,11.5-0.6c14.9-3.7,18.5-17.9,17.5-30.8c-0.4-5.5-1.3-10.9-2-16.4c0.7,0,1.4,0,2.1,0
			c4,14.3,9.7,27.6,21.9,37.2c5.8,4.6,11.9,4.2,19,0.3c-1,6.7-2.3,12.6-2.8,18.5c-1.6,17.2-1.6,34.3,9.1,49.2
			c3.3,4.7,7.6,8.6,14.6,7.8c6.1-0.7,9.8-5,12.1-9.3c5.4-10.1,9.7-20.9,14.4-31.2c17.3,20.2,34.3,10.5,52-4.4
			c-9.4,25-15.3,48.5,5,70.7c-18.3,1.5-33.1,8-41.7,24.3c-8.3,15.9-6.5,31.5,2.1,48.1c-6.4-1.4-11.7-2.5-16.9-3.7
			c-5.6-1.3-11.2-3.2-16.8-3.8c-10.5-1.2-20.7,3.2-19.5,15.9c0.9,10.5,2.8,21.2,6.5,31.1c5.3,14.3,8.2,28.9,8.9,43.9
			c0.9,19.4,2.2,38.8,1.9,58.1c-0.3,17.7-2.5,35.4-3.9,53.1c-0.7,9.4-1.4,18.7-2.1,28.1c-0.2,2.7-1.1,6.1,0.2,7.9
			c1.2,1.6,5.3,0.9,7.5,2.2c5.5,3.4,10.7,7.3,16,11.1c-0.4,0.8-0.9,1.6-1.3,2.3c-6.7-0.2-11.1-7.1-17.6-6.8
			c1.9,7.6,3.7,15.3,5.7,23.2c-4.5-0.2-7.8-3-8.3-7.9c-0.6-6-2.2-11-8.6-13.8c-3.7,4.4-9.5,7.8-8.2,15.2c0.3,1.7,0.8,3.7,0.2,5.2
			c-1.5,3.8-3.6,7.3-5.5,11C287.7,502.8,286.6,502.8,285.6,502.8z M302.3,179c0-10.8-9.2-17.6-18.4-12.8c-8,4.2-11.6,11.4-11.6,19.8
			c0,5.2,2.4,10.6,8.1,12.9c5.8,2.3,10.8,0.4,15.2-3.6C300.3,191,302.5,185.8,302.3,179z"/>
		<path id="XMLID_33_" class="st1" d="M298.1,183.8c0,6.5-3,9.6-9.1,9.5c-4.4-0.1-6.6-2.6-6.6-7.6c0-6.1,4-10.8,9-10.7
			C296.1,175.1,298.1,177.8,298.1,183.8z"/>
	</g>
</g>
<polyline id="XMLID_4_" class="st2" points="524.1,597.6 525.6,595.7 525.6,595.7 518.1,595.7 "/>
</svg>
